PathFileType	4	(X/Y/Z)	/Users/itak/Documents/Research/Walk-IL/dataset/trc/00050_00006.trc
DataRate	CameraRate	NumFrames	NumMarkers	Units	OrigDataRate	OrigDataStartFrame	OrigNumFrames
100.000000	100.000000	4	53	mm	100.000000	448	513
Frame#	Time	RPSI			LPSI			L3			STRN			T10			C7			CLAV			RBAK			LBAK			LSHO			LUPA			LAEL			LAOL			LWTS			LWPS			LFRA			LIFD			LHPS			LHTS			RSHO			RUPA			RAEL			RAOL			RWTS			RWPS			RFRA			RIFD			RHTS			RHPS			RBHD			LFHD			RFHD			LBHD			LHIP			RHIP			RASI			LASI			LKNE			LTHI			LANK			LTIP			LTOE			LMT1			LMT5			LHEE			RKNE			RTHI			RANK			RTIP			RTOE			RMT1			RMT5			RHEE			
		X1	Y1	Z1	X2	Y2	Z2	X3	Y3	Z3	X4	Y4	Z4	X5	Y5	Z5	X6	Y6	Z6	X7	Y7	Z7	X8	Y8	Z8	X9	Y9	Z9	X10	Y10	Z10	X11	Y11	Z11	X12	Y12	Z12	X13	Y13	Z13	X14	Y14	Z14	X15	Y15	Z15	X16	Y16	Z16	X17	Y17	Z17	X18	Y18	Z18	X19	Y19	Z19	X20	Y20	Z20	X21	Y21	Z21	X22	Y22	Z22	X23	Y23	Z23	X24	Y24	Z24	X25	Y25	Z25	X26	Y26	Z26	X27	Y27	Z27	X28	Y28	Z28	X29	Y29	Z29	X30	Y30	Z30	X31	Y31	Z31	X32	Y32	Z32	X33	Y33	Z33	X34	Y34	Z34	X35	Y35	Z35	X36	Y36	Z36	X37	Y37	Z37	X38	Y38	Z38	X39	Y39	Z39	X40	Y40	Z40	X41	Y41	Z41	X42	Y42	Z42	X43	Y43	Z43	X44	Y44	Z44	X45	Y45	Z45	X46	Y46	Z46	X47	Y47	Z47	X48	Y48	Z48	X49	Y49	Z49	X50	Y50	Z50	X51	Y51	Z51	X52	Y52	Z52	X53	Y53	Z53	

449	4.48	-710.8931884765625	1032.693481445312	-77.53399658203125	-734.8717041015625	1025.535522460938	-251.8277130126953	-719.8367919921875	1088.664428710938	-169.2852478027344	-463.7312622070312	1282.661376953125	-186.7887115478516	-733.1618041992188	1223.604614257812	-169.6784820556641	-669.9954223632812	1488.987915039062	-180.0742340087891	-492.1453857421875	1397.472412109375	-188.6635437011719	-728.041259765625	1352.319946289062	-99.20732116699219	-698.7077026367188	1450.30078125	-278.9045104980469	-600.5718383789062	1451.905151367188	-357.8489074707031	-623.2919921875	1323.05859375	-431.5528259277344	-600.6591796875	1107.869018554688	-447.1898498535156	-656.8497314453125	1093.864990234375	-356.6103515625	-499.6344299316406	871.8035888671875	-387.5996398925781	-562.3474731445312	858.8895263671875	-442.2549133300781	-578.9217529296875	999.276123046875	-454.5823669433594	-483.1702270507812	685.6640625	-368.0426330566406	-527.7991943359375	778.5499877929688	-439.4253845214844	-474.5948181152344	790.80029296875	-391.1452941894531	-594.9620361328125	1454.7080078125	-9.132134437561035	-604.7337036132812	1388.864990234375	55.86003112792969	-645.0000610351562	1133.651123046875	111.375846862793	-630.1290893554688	1100.50244140625	18.15583229064941	-511.2901306152344	875.6487426757812	92.57999420166016	-579.571044921875	866.9567260742188	148.8790435791016	-634.2560424804688	1053.703857421875	127.6104507446289	-513.4254760742188	686.4757080078125	90.55374145507812	-491.9586181640625	772.4854736328125	100.4542541503906	-545.1708984375	775.7821044921875	156.4683837890625	-629.4046020507812	1671.540405273438	-246.4184875488281	-464.1180725097656	1694.551391601562	-109.3269577026367	-454.3265075683594	1705.97119140625	-234.4675140380859	-630.4160766601562	1651.92138671875	-109.4750518798828	-643.2723388671875	967.164794921875	-354.1127624511719	-639.760009765625	960.2902221679688	-6.048096179962158	-517.7197265625	974.0636596679688	-38.19473266601562	-523.5556640625	973.1525268554688	-304.5462341308594	-529.0877685546875	502.7467956542969	-346.3134155273438	-571.1470336914062	645.733154296875	-370.082763671875	-719.2882690429688	64.99738311767578	-391.3646850585938	-633.9169921875	273.4350891113281	-383.8639221191406	-519.3893432617188	43.6618537902832	-405.7325134277344	-560.1915893554688	43.31499099731445	-347.6141967773438	-624.221435546875	45.29734802246094	-440.7375793457031	-764.198486328125	66.9920654296875	-311.5045166015625	-588.0629272460938	513.8392944335938	-44.42361831665039	-567.441650390625	782.9407958984375	-10.02515697479248	-703.625732421875	42.52849197387695	-69.23761749267578	-616.9122924804688	391.1890869140625	-44.35541152954102	-488.2191162109375	42.66233825683594	-106.2732620239258	-547.6709594726562	45.95189666748047	-144.8059997558594	-577.8917236328125	48.78787994384766	-51.79084014892578	-750.9613037109375	44.83863830566406	-127.5635375976562	
450	4.49	-710.8707885742188	1032.459350585938	-78.85018920898438	-734.574951171875	1025.107666015625	-253.1937866210938	-719.7208251953125	1088.165283203125	-170.7898254394531	-464.2935485839844	1282.619140625	-187.8043670654297	-733.5098876953125	1223.11328125	-171.1137237548828	-670.86669921875	1488.639404296875	-181.0998229980469	-492.8530578613281	1397.43896484375	-189.5634460449219	-728.7603759765625	1351.762451171875	-100.4839401245117	-699.3782958984375	1449.984252929688	-280.0182800292969	-601.09228515625	1451.887939453125	-358.8279724121094	-623.5558471679688	1323.0966796875	-432.7500305175781	-600.693115234375	1107.90478515625	-448.4580078125	-657.1095581054688	1093.812377929688	-358.0450439453125	-499.9299926757812	871.7317504882812	-388.8501586914062	-562.4669189453125	858.9265747070312	-443.7451782226562	-578.9705200195312	999.3370361328125	-455.9229431152344	-483.7210693359375	685.5476684570312	-369.4245910644531	-527.9872436523438	778.572265625	-440.8930969238281	-474.8465270996094	790.7848510742188	-392.465087890625	-595.9750366210938	1454.294189453125	-10.09768199920654	-605.7298583984375	1388.387329101562	54.81962966918945	-645.9769287109375	1133.1318359375	109.9381332397461	-630.80908203125	1100.053588867188	16.74551582336426	-512.4954833984375	874.9869384765625	91.47257995605469	-580.9552612304688	866.4165649414062	147.6083068847656	-635.26318359375	1053.21435546875	126.1651611328125	-514.9163818359375	685.8162231445312	89.52159118652344	-493.3644409179688	771.8018188476562	99.46114349365234	-546.7667236328125	775.2160034179688	155.3186798095703	-630.5804443359375	1671.2529296875	-247.2449645996094	-465.4600830078125	1694.55224609375	-110.0006408691406	-455.5997619628906	1706.0439453125	-235.1153564453125	-631.723388671875	1651.567138671875	-110.2904739379883	-643.034912109375	966.506591796875	-355.2806396484375	-639.6259765625	960.471435546875	-7.136562824249268	-517.478271484375	974.3195190429688	-39.26143646240234	-523.19091796875	972.6728515625	-305.7392883300781	-534.0292358398438	501.758056640625	-346.6200866699219	-574.3411254882812	644.830810546875	-370.5999450683594	-721.1967163085938	63.04409790039062	-391.7085266113281	-637.404052734375	272.1787719726562	-384.3351745605469	-521.0138549804688	43.16265869140625	-406.0155029296875	-561.9052124023438	43.22714233398438	-347.7411804199219	-625.8604736328125	43.77565002441406	-441.0924072265625	-766.4406127929688	64.97334289550781	-311.9423217773438	-588.3320922851562	513.9361572265625	-45.01961135864258	-567.2816772460938	783.068115234375	-10.86515808105469	-703.5973510742188	42.59213638305664	-69.27801513671875	-617.169921875	391.3584594726562	-44.86036682128906	-488.1953735351562	42.65726470947266	-106.2838134765625	-547.64697265625	45.88578796386719	-144.8848724365234	-577.8344116210938	48.83774948120117	-51.9141731262207	-750.9457397460938	44.85580062866211	-127.5844421386719	
451	4.5	-710.8331298828125	1032.235595703125	-80.20200347900391	-734.269775390625	1024.699951171875	-254.6001129150391	-719.56982421875	1087.662719726562	-172.3450469970703	-464.8266296386719	1282.546875	-188.8691558837891	-733.7987060546875	1222.6171875	-172.6046905517578	-671.6868286132812	1488.286254882812	-182.1571502685547	-493.5005493164062	1397.382934570312	-190.5076141357422	-729.4409790039062	1351.195678710938	-101.8046112060547	-699.99951171875	1449.666381835938	-281.1647338867188	-601.566162109375	1451.873168945312	-359.8448791503906	-623.7942504882812	1323.142822265625	-433.9969177246094	-600.7657470703125	1107.938720703125	-449.7776184082031	-657.36181640625	1093.771606445312	-359.520751953125	-500.1842651367188	871.6937255859375	-390.1083679199219	-562.567626953125	858.961669921875	-445.2083435058594	-579.015380859375	999.3900146484375	-457.2854614257812	-484.1307983398438	685.4810791015625	-370.7892150878906	-528.103271484375	778.6039428710938	-442.3279113769531	-475.0480346679688	790.7998046875	-393.7852172851562	-596.9368896484375	1453.85009765625	-11.1011848449707	-606.6749267578125	1387.864135742188	53.73029708862305	-646.88427734375	1132.572387695312	108.453987121582	-631.4407348632812	1099.569091796875	15.28283500671387	-513.5602416992188	874.3193969726562	90.25362396240234	-582.2048950195312	865.8394165039062	146.2491912841797	-636.186767578125	1052.681884765625	124.6689453125	-516.2939453125	685.1285400390625	88.36384582519531	-494.6509094238281	771.0955810546875	98.34123992919922	-548.220458984375	774.609375	154.0564880371094	-631.6951904296875	1670.958862304688	-248.10791015625	-466.7337036132812	1694.526611328125	-110.7095489501953	-456.8023071289062	1706.087280273438	-235.7975921630859	-632.9700317382812	1651.216430664062	-111.1494674682617	-642.78271484375	965.8352661132812	-356.4750366210938	-639.4971923828125	960.6559448242188	-8.254616737365723	-517.261962890625	974.5574951171875	-40.36727523803711	-522.8223266601562	972.16796875	-306.9612731933594	-538.7822265625	500.8504333496094	-346.8542785644531	-577.4517211914062	643.9505615234375	-371.1324462890625	-722.4351196289062	61.08544921875	-391.9673767089844	-640.4163818359375	270.9025268554688	-384.7254028320312	-521.9378051757812	42.78128814697266	-406.3351135253906	-562.9200439453125	43.17584228515625	-347.8872680664062	-626.8178100585938	42.41189956665039	-441.41064453125	-767.9588012695312	62.77814865112305	-312.2592468261719	-588.5413208007812	514.02587890625	-45.65423202514648	-567.1011962890625	783.1984252929688	-11.7383861541748	-703.565185546875	42.66164398193359	-69.32435607910156	-617.3591918945312	391.5256042480469	-45.39025497436523	-488.166015625	42.65011596679688	-106.2801055908203	-547.6204833984375	45.81609725952148	-144.9631500244141	-577.7789306640625	48.89030456542969	-52.03741455078125	-750.9278564453125	44.87715148925781	-127.6136932373047	
452	4.51	-710.787353515625	1032.029663085938	-81.56931304931641	-733.9788818359375	1024.326416015625	-256.0246887207031	-719.3973388671875	1087.1669921875	-173.9268951416016	-465.3330078125	1282.452026367188	-189.9770202636719	-734.04150390625	1222.125854492188	-174.1417388916016	-672.45849609375	1487.9345703125	-183.2402954101562	-494.0913696289062	1397.30712890625	-191.4914093017578	-730.0863647460938	1350.628173828125	-103.1602935791016	-700.5753173828125	1449.355102539062	-282.3369750976562	-602.0028076171875	1451.86181640625	-360.8935852050781	-624.012451171875	1323.196899414062	-435.2837219238281	-600.8687133789062	1107.972290039062	-451.1442260742188	-657.6080322265625	1093.741577148438	-361.0345764160156	-500.4015502929688	871.6886596679688	-391.3733825683594	-562.6489868164062	858.9959716796875	-446.6489562988281	-579.05419921875	999.4367065429688	-458.6683654785156	-484.4071044921875	685.461669921875	-372.1349487304688	-528.1511840820312	778.6439208984375	-443.7322692871094	-475.2004089355469	790.842041015625	-395.1033325195312	-597.8491821289062	1453.3818359375	-12.13652992248535	-607.5737915039062	1387.300903320312	52.59801864624023	-647.7235107421875	1131.97607421875	106.9237899780273	-632.0287475585938	1099.053100585938	13.76702213287354	-514.4902954101562	873.6506958007812	88.92876434326172	-583.3258056640625	865.2283935546875	144.8000335693359	-637.0321655273438	1052.108764648438	123.1213684082031	-517.5570068359375	684.4176635742188	87.08144378662109	-495.8177185058594	770.3715209960938	97.09474945068359	-549.528076171875	773.9630737304688	152.6822357177734	-632.7537841796875	1670.664916992188	-249.0001220703125	-467.942138671875	1694.480590820312	-111.4480133056641	-457.9401245117188	1706.105590820312	-236.5088653564453	-634.15478515625	1650.873291015625	-112.0488128662109	-642.5349731445312	965.1665649414062	-357.6788330078125	-639.37451171875	960.8431396484375	-9.395275115966797	-517.0709838867188	974.7760620117188	-41.51409530639648	-522.470458984375	971.6510009765625	-308.2122192382812	-543.242919921875	500.03271484375	-347.0155029296875	-580.417236328125	643.1064453125	-371.6661987304688	-723.143310546875	59.2142219543457	-392.1295166015625	-642.9692993164062	269.648681640625	-385.0169982910156	-522.3175659179688	42.50255966186523	-406.6524353027344	-563.3956298828125	43.13715744018555	-348.0207824707031	-627.24169921875	41.24998092651367	-441.6597290039062	-768.8923950195312	60.52231216430664	-312.44677734375	-588.6868286132812	514.1102294921875	-46.32360076904297	-566.9044189453125	783.3304443359375	-12.64024257659912	-703.529296875	42.73688888549805	-69.37704467773438	-617.4783325195312	391.6901550292969	-45.94203186035156	-488.1307373046875	42.64057540893555	-106.2592849731445	-547.5911865234375	45.74261474609375	-145.0409240722656	-577.727783203125	48.9441032409668	-52.15809631347656	-750.9073486328125	44.90303421020508	-127.6512985229492	
